/* XPM */
static char *out[] = {
/* columns rows colors chars-per-pixel */
"30 32 66 1 ",
"  c black",
". c #272534",
"X c #2C2C3B",
"o c #4C3638",
"O c #4D3739",
"+ c #4F3639",
"@ c #4E3938",
"# c #4E383A",
"$ c #3A3951",
"% c #5D4545",
"& c #5E4445",
"* c #5D4447",
"= c #5F4546",
"- c #5E4447",
"; c #5C4746",
": c #5E4646",
"> c #5F4747",
", c #5D4847",
"< c #5E4548",
"1 c #5F4548",
"2 c #5F4649",
"3 c #5E4948",
"4 c #614446",
"5 c #604647",
"6 c #614748",
"7 c #60474A",
"8 c #604848",
"9 c #614949",
"0 c #61484B",
"q c #604B4A",
"w c #614C4B",
"e c #624D4C",
"r c #7F574D",
"t c #7E584D",
"y c #7F594E",
"u c #7E5A4E",
"i c #7F5B4F",
"p c #7B5852",
"a c #7D5850",
"s c #7F5851",
"d c #7E5951",
"f c #7C5A51",
"g c #7D5852",
"h c #7C5953",
"j c #7F5853",
"k c #7E5953",
"l c #7D5B52",
"z c #7F5A52",
"x c #7D5A54",
"c c #7F5A54",
"v c #555378",
"b c #81564D",
"n c #82574E",
"m c #80584E",
"M c #81594F",
"N c #825A50",
"B c #805B53",
"V c #BB6566",
"C c #9C9059",
"Z c #B8AC73",
"A c #BDBABA",
"S c #E1AF90",
"D c #F2CAB0",
"F c #DADADA",
"G c #F6D8C3",
"H c #EAEAEA",
/* pixels */
"wq3,;;,,4444444444444444,,;;,3",
"NMmmrrmMmFFFmmmmmmmmmmmmMmrrmm",
"gggggkkkFFFFFFppppppppppkkkggg",
"dzzzzzzFFFHHHHFlllllllllzzzzzz",
"OOO#OOFFFHHHHHC+++++++++oOOO#O",
"iiiiiuFFFHHZZDDZmmmmmmmmuuuiii",
"fffffffAFZZZG GaaaaFaaaaffffff",
"kkgggkkCAGZDGGGkkkkFkkkkckkggg",
"@@@@@@@CCZZDDG@@@@VA@@@@@@@@@@",
"yyyyyyCyZZCSSyyyyyVAyyyyyyyyyy",
"kkkkkkkZZC...kkkkkVAkkkkkkkkkk",
"ddddddddd.$$$.ddddAFdddddddddd",
"########.X$$vX.###DS##########",
"yyyyyyyy.X$$$vXXyXDDyyyyyyyyyy",
"ffffffff.X$$$$$vXXvXffffffffff",
"jjjjjjjjjX$$$XX$v$Xjjjjjjjjjjj",
"eew98>:%=XX$XX=XXX======5=&&=6",
"iiyyyyttmmXXXXmmmmmmmmmmmmrrrm",
"ppphhhxxh.XFFFXhhhhhhhhhhhhppp",
"dddsssss..XXXFFXdddddddddddddd",
"111111--..X$XXHFX<<<<<<<*<<<2<",
"bbnnnnm..XX$$XHFXmmmmmmmrrrmmm",
"dddzzll..X$$$XHFFXddddddaaaaad",
"kkkhhh..XX$$$XXHFXhhhhhhxxhhph",
"555==&..XX$v$$XHFX======&&&==5",
"rrrmmm..X$$$v$XHXXmmmmmmmmmmmr",
"ppphhh..X$$v$$XHXXhhhhhhxxhhhp",
"BBzzdd..X$$$$$XXX.ddddddddddzz",
"00772<<.XXX$$XXX.<<<<<<<*<<277",
"MMMMmmmm..XXXX..mmmmmmmmmmmmMM",
"ddddddzzdd....ddddddddddzzdddd",
"hhhhhhhhhhhhhhhhhhhhhhhhhhhhhh"
};
