/* XPM */
static char *out[] = {
/* columns rows colors chars-per-pixel */
"30 30 52 1 ",
"  c #272534",
". c #2C2C3B",
"X c #4B3635",
"o c #4D3836",
"O c #4E3939",
"+ c #503637",
"@ c #513B3A",
"# c #5D443F",
"$ c #62433E",
"% c #3A3951",
"& c #574241",
"* c #5D4544",
"= c #5E4946",
"- c #5D4749",
"; c #5E4A4A",
": c #624544",
"> c #634946",
", c #684946",
"< c #624449",
"1 c #624C4A",
"2 c #6A4C49",
"3 c #6C504D",
"4 c #7F5547",
"5 c #73534F",
"6 c #7D564D",
"7 c #7D594E",
"8 c #755754",
"9 c #7D5752",
"0 c #765A55",
"q c #7D5953",
"w c #795B58",
"e c #815747",
"r c #80554E",
"t c #815A4E",
"y c #8A5F4C",
"u c #805752",
"i c #815A53",
"p c #815B58",
"a c #87614F",
"s c #8C624E",
"d c #856050",
"f c #8B6351",
"g c #886458",
"h c #916451",
"j c #BB6566",
"k c #B8AC73",
"l c #E1AF90",
"z c #E9C0A6",
"x c #F2CAB0",
"c c #DADADA",
"v c #F6D8C3",
"b c #ECECEC",
/* pixels */
"qqqq8qqqqqcccc58qwq8qqqqqqqq9w",
":*<<<*:**bbbbbc11>1;=111=;==;>",
"777877qiicbbbbbc677iiuuqii6699",
"77ttttt99ccccccctqqt7urq9pqqiq",
"qqqq98qticccccckgfdahhftq7t477",
"#:>,:::#cckkcckxk*130bw1=<***:",
"q0053,>cckxkkkkvkq7qibiiiiuuii",
"qq7qq00iwkkxkkvk99qgwjbi796iqq",
"u6iqt8i7iqk7klkkt7477jbhssfaat",
":$::::<:>k.k%k.kk<>**jb:$$,>*#",
"9qqq87qwq.k%%%k%kttrbzzbiqw5,,",
"qiit77tq.%%%%%%%%%8qqzzz0qqw0w",
"607qiid.% .%%%%% %%7.%%hssyt74",
"<$$$$$$.% ..%%%. %%%%%.:::::<<",
">>158w.%.7  ..  t..%..tiqqi67q",
"qqq8q.%%riiccbc7q7...787777q7q",
"itu9..%u9q ..b. 6878787iui99i6",
"OO+z%%*++  .b.b% :*>>-;*11>;11",
"tiizzztq   ...... 2,>>>,,8gw>,",
"qqqq99i   .......  68qq9u988pp",
"77777ig  ..%%.%... hhhysadfye4",
"=#@XXX   .%%%.%%..  **@OX@;-OO",
"iiqtii  ..%%..%%..  iq9ii999qq",
"qiiii.  .%%%...%%..  6766uuiup",
"iaafy  .%%%%...%%..  9iqq777q7",
"1=&@O   .%%%....%..  o@OOOOOO@",
"7i777t   .%........ ii6t7it767",
"iiiiqq9  ........  qiqqqiqiqqq",
"q6q9qr9e    ...   dt77q7qiqiiq",
"1;--*@@@@@      #**>>11*;;-;>;"
};
