/* XPM */
static char *out[] = {
/* columns rows colors chars-per-pixel */
"30 30 59 1 ",
"  c black",
". c #272534",
"X c #2C2C3B",
"o c #4C3638",
"O c #4D3739",
"+ c #4F3639",
"@ c #4E3938",
"# c #4E383A",
"$ c #3A3951",
"% c #5E4445",
"& c #5D4447",
"* c #5F4546",
"= c #5E4447",
"- c #5E4548",
"; c #5F4548",
": c #5F4649",
"> c #604647",
", c #614748",
"< c #60474A",
"1 c #604848",
"2 c #614949",
"3 c #61484B",
"4 c #614C4B",
"5 c #624D4C",
"6 c #7F574D",
"7 c #7E584D",
"8 c #7F594E",
"9 c #7E5A4E",
"0 c #7F5B4F",
"q c #7B5852",
"w c #7D5850",
"e c #7F5851",
"r c #7E5951",
"t c #7C5A51",
"y c #7D5852",
"u c #7C5953",
"i c #7F5853",
"p c #7E5953",
"a c #7D5B52",
"s c #7F5A52",
"d c #7D5A54",
"f c #7F5A54",
"g c #81564D",
"h c #82574E",
"j c #80584E",
"k c #81594F",
"l c #825A50",
"z c #805B53",
"x c #BB6566",
"c c #B8AC73",
"v c #BDBABA",
"b c #C4BB91",
"n c #E1AF90",
"m c #E9C0A6",
"M c #F2CAB0",
"N c #DADADA",
"B c #F6D8C3",
"V c #EAEAEA",
"C c #EFEFEF",
/* pixels */
"lkjj66jkjjjjNNNNjjjjjjjjkj66jj",
"yyyyypppqqqNVVVVVqqqqqqqpppyyy",
"rsssssssaaNVVVVVVaaaaaaassssss",
"OOO#OOOo++VbbbbNN+++++++oOOO#O",
"00000999jcBBBbBMNjjjjjjj999000",
"ttttCtttwcB BB MNNwwwwwwtttttt",
"ppyyCppfpcBBBBBMcNNpppppfppyyy",
"@@@Cx@@@@ccBBMMcc@@@@@@@@@@@@@",
"888Cx88888c8nn8c88888888888888",
"pppCxppppcXXXXXXcppppppppppppp",
"rrCmmCrrr$$$Nv$$Xrrrrrrrrrrrrr",
"##mmm###$$$$Nv$$$X############",
"888$$X8$$.$$vv$X.$X88888888888",
"tttX$$$$$.$$$$XX.$Xttttttttttt",
"iiiiXX$XXi..$$..iX$Xiiiiiiiiii",
"55421XXX***vXXv***$$X***>*%%*,",
"00888877jjX$vvX.jjj$XXjjjj666j",
"qqquuuddu$$NvvvX.uuu$$muuuuqqq",
"rrreeeeeXXNNNvvvX.rrmmmrrrrrrr",
";;;;;;=XXNNNNNvvvX.-----&---:-",
"gghhhhjX$NNNNNNvvX.jjjjj666jjj",
"rrrssaXXNNNNNNNNvvX.rrrrwwwwwr",
"pppuuuX$NNNNNNNNvvX.uuuudduuqu",
">>>**XX$NNNNNNNNvvX.X***%%%**>",
"666jjXX$$NNNNNNNv$X..jjjjjjjj6",
"qqquuX$$$$$NNNN$$XX..uuudduuuq",
"zzssrr$$$$$$$X$XXX..rrrrrrrrss",
"33<<:--$$$$$XXXX...-----&--:<<",
"kkkkjjjjXXXXXX....jjjjjjjjjjkk",
"rrrrrrssrrXXXX..rrrrrrrrssrrrr"
};
