/* XPM */
static char *out[] = {
/* columns rows colors chars-per-pixel */
"30 30 57 1 ",
"  c black",
". c #272534",
"X c #2C2C3B",
"o c #4C3638",
"O c #4D3739",
"+ c #4F3639",
"@ c #4E3938",
"# c #4E383A",
"$ c #3A3951",
"% c #5E4445",
"& c #5D4447",
"* c #5F4546",
"= c #5E4447",
"- c #5E4548",
"; c #5F4548",
": c #5F4649",
"> c #604647",
", c #614748",
"< c #60474A",
"1 c #604848",
"2 c #614949",
"3 c #61484B",
"4 c #614C4B",
"5 c #624D4C",
"6 c #7F574D",
"7 c #7F594E",
"8 c #7E5A4E",
"9 c #7F5B4F",
"0 c #7B5852",
"q c #7D5850",
"w c #7F5851",
"e c #7E5951",
"r c #7C5A51",
"t c #7D5852",
"y c #7C5953",
"u c #7F5853",
"i c #7E5953",
"p c #7D5B52",
"a c #7F5A52",
"s c #7D5A54",
"d c #7F5A54",
"f c #555378",
"g c #81564D",
"h c #82574E",
"j c #80584E",
"k c #81594F",
"l c #825A50",
"z c #805B53",
"x c #BB6566",
"c c #9C9059",
"v c #B8AC73",
"b c #BDBABA",
"n c #E1AF90",
"m c #F2CAB0",
"M c #DADADA",
"N c #F6D8C3",
"B c #EAEAEA",
/* pixels */
"lkjj66jkjjjjjjjjjjjjjjjjkj66jj",
"tttttiii0000MMM000000000iiittt",
"eaaaaaaappMMMMMMppppppppaaaaaa",
"OOO#OOOo+MBBBBMMM+++++++oOOO#O",
"99999888jcBBBBBMMMjjjjjj888999",
"rrrrrrrrvmmvvBBMMMqqqqqqrrrrrr",
"iittMiidiN NvvvMbiiiiiiidiittt",
"@@@@M@@@@NNNmvNbc@@@@@@@@@@@@@",
"7777bx7777Nmmvvcc7777777777777",
"iiiibxiiiiinncvviciiiiiiiiiiii",
"eeeebxeeeee...cvveeeeeeeeeeeee",
"####Mb####.$$$.###############",
"7777nm777.Xf$$X.77777777777777",
"rrrrmmXrXXf$$$X.rrrrrrrrrrrrrr",
"uuuuXfXXf$$$$$X.uuuuuuuuuuuuuu",
"55421X$f$XX$$$X*********>*%%*,",
"997777XXXjXX$XXjjjjjjjjjjj666j",
"000yyyssyyXXXXyyyyyyyyyyyyy000",
"eeewwwwweXMMMX.eeeeeeeeeeeeeee",
";;;;;;==XMMXXX..--------&---:-",
"gghhhhjXMBXX$X..jjjjjjjj666jjj",
"eeeaappXMBX$$XX..eeeeeeeqqqqqe",
"iiiyyyXMMBX$$$X..yyyyyyyssyy0y",
">>>**%XMBXX$$$XX..******%%%**>",
"666jjjXMBX$$f$XX..jjjjjjjjjjj6",
"000yyyXXBX$f$$$X..yyyyyyssyyy0",
"zzaaeeXXBX$$f$$X..eeeeeeeeeeaa",
"33<<:-.XXX$$$$$X..------&--:<<",
"kkkkjjj.XXX$$XXX.jjjjjjjjjjjkk",
"eeeeeeaa..XXXX..eeeeeeeeaaeeee"
};
