/* XPM */
static char *out[] = {
/* columns rows colors chars-per-pixel */
"30 30 72 1 ",
"  c black",
". c #272534",
"X c #2C2C3B",
"o c #4D3735",
"O c #4D3837",
"+ c #4D363A",
"@ c #4E393A",
"# c #523635",
"$ c #5A3731",
"% c #533936",
"& c #523A3B",
"* c #67453C",
"= c #714D3F",
"- c #3A3951",
"; c #5D4443",
": c #5D4945",
"> c #5E4548",
", c #5F4B4A",
"< c #47465C",
"1 c #624645",
"2 c #624A45",
"3 c #6C4C46",
"4 c #60474A",
"5 c #624B4B",
"6 c #6C4D4B",
"7 c #64514E",
"8 c #6C514B",
"9 c #795547",
"0 c #74534E",
"q c #7D564D",
"w c #77594F",
"e c #7E594E",
"r c #765552",
"t c #7C5752",
"y c #775955",
"u c #7D5A53",
"i c #7B5C59",
"p c #5C5A73",
"a c #82564C",
"s c #815A4E",
"d c #895E4E",
"f c #815751",
"g c #825B52",
"h c #895D52",
"j c #845E5B",
"k c #905454",
"l c #85614E",
"z c #8B634E",
"x c #866151",
"c c #8B6252",
"v c #8D6855",
"b c #856259",
"n c #8B6458",
"m c #8A6A5B",
"M c #906555",
"N c #926D5A",
"B c #91755F",
"V c #937461",
"C c #957963",
"Z c #997965",
"A c #907969",
"S c #9A7A6B",
"D c #A28277",
"F c #B8AC73",
"G c #BDBABA",
"H c #CCA288",
"J c #C4BB91",
"K c #F2CAB0",
"L c #DADADA",
"P c #F6D8C3",
"I c #EAEAEA",
"U c white",
/* pixels */
"gttge99tcVm*tevvxddMMcxcllzvzl",
"tuiuwxmVZAw8uLLLLMczzscVZCBBVC",
"gaghxvNvse=lLIIIIIzczxvVZSZSSD",
"+%%%%OO&&%&LIIIIII1452,2::::;&",
"eqtgir3G3ttIJJJJLLgsguhxxzzMzz",
"uiyyyiyGiuFPPPJPKLwwtggczzdddz",
"tasaaaGkzzFP PP KLLuesxczxcccz",
"@+&;1#Gk;FFKPPPPKFLL@&@+@@&+++",
"eubuqiGk2FF3KKKKFFasq9gggaqqsx",
"taqaeGHHFFsXX--XXFgqggeqgqggxc",
"tuqgbHHHuxXXXLGXFXcncbcr3gxxhs",
"@%;1%X..$XX--LG--<<;4;@&;;&@O&",
"e576:6X...X--GG---p<gega9eueet",
"tu0yjyXX..X-------ppugtruruuut",
"fdcs9ugXXXu..--..t<ppttgggttgh",
"5i2;1:&O;;&OGXXG;11pp44>&&27::",
"ggaqggqegggX-GGXXuuPP222222rjg",
"taassssgat--LGGGXXuPPiiiygfgwu",
"auir0yyiyXXLLLGGGXhdhsaasiruug",
">11;&+&&&XUULLLGGGX%%ooO@%####",
"ayuiu3130UUUULLLGGX.euuuyi4:77",
"tfgggeqtLUUUULLLLGGX.qeug28itr",
"ugtqetuXLLLLULLGG--X.zzzxg9ggu",
"1411:::--ppLLLLG---X.555,55544",
"qesqsqg-<pppLULGXXXX.eegtseses",
"ttututt-<pppXLL-XXXX.getttutgu",
"ugtggtt-<pp<X-X-XXX.ccxxxttttt",
"55444>1:<pp<--XXX::;;;:15557,7",
"gsssgqse<pp<--X.qfgatggjgeeeee",
"tteggtgtt<<--XX.tqqggtgyytteee"
};
