/* XPM */
static char *out[] = {
/* columns rows colors chars-per-pixel */
"30 30 64 1 ",
"  c black",
". c #272534",
"X c #2C2C3B",
"o c #4D3634",
"O c #4E3935",
"+ c #4D3739",
"@ c #4D3B3A",
"# c #523734",
"$ c #533935",
"% c #503739",
"& c #523B3B",
"* c #5B3F3C",
"= c #56413D",
"- c #5A423E",
"; c #3A3951",
": c #593F40",
"> c #564243",
", c #5A4343",
"< c #5E4945",
"1 c #5C4648",
"2 c #5D4A4B",
"3 c #47465C",
"4 c #614542",
"5 c #634A45",
"6 c #6C4A45",
"7 c #624549",
"8 c #614C4B",
"9 c #6A4F4A",
"0 c #6D504C",
"q c #75554D",
"w c #7C554D",
"e c #75594E",
"r c #7E594E",
"t c #625050",
"y c #745653",
"u c #7D5752",
"i c #765855",
"p c #7D5A52",
"a c #765A59",
"s c #7B5B58",
"d c #5C5A73",
"f c #82564D",
"g c #815A4D",
"h c #8B5F4F",
"j c #815752",
"k c #815A53",
"l c #8A5E52",
"z c #825C5A",
"x c #8A624F",
"c c #876252",
"v c #8A6353",
"b c #836159",
"n c #8A655B",
"m c #916253",
"M c #CB7172",
"N c #B8AC73",
"B c #BDBABA",
"V c #C4BB91",
"C c #E5AE8C",
"Z c #F2CAB0",
"A c #DADADA",
"S c #F6D8C3",
"D c #EAEAEA",
"F c white",
/* pixels */
"wyaaiusrpwwrkAAAAuuskrkwfssupk",
"kkprfllhvvcxADDDDDpnvxvxxrpprw",
"%--&$&&O&##ADDDDDD=259yss88<>%",
"ggkwwq9F5kwDVVVVAAkkpukfguukjs",
"upsssssFsrNSSSVSZAuuuukgfrkuus",
"kpkffgFMxxNS SS ZAANprcvvvvggr",
"@o+,-$FM-,NSSSSSZNAA+&&+o%&o&O",
"6sksusFM5NN8SSZZNkNNwfkklkuwku",
"sgwffFSSFpNXX;;XXwrpNrrqwwppps",
"prwbbSSSuvXN;AB;;.clvnbp6gcvrr",
"o&,-$ddd#3;;;AB;;..51&+&>,o&$o",
"r282<9dddd;;;BB;;;..wgppppwwpr",
"wpqpse3dd3X;;;;;;...pppppsszpr",
"vmxgwrk333w...;..k...prpprgwrn",
"8a5*,,o&,-&oBXXB=--..C<>@@<t22",
"pkrukpuplzj.XBB;XpeqCC55566qkp",
"pwwfgrrwwu.XBBBA;;rpyiissqpprp",
"spsspissi.XBBBAAAXXvlljfwzzuss",
"<--*&%O&.XBBBAAAFFX*-,:,&OoO--",
"rsssy969.XBBAAAFFFFpgwwpwwrkpk",
"krppkrq.XBBAAAAFFFFAjufjpkkwrp",
"pgprrps.X;;BBAAFAAAAXxxvxukspp",
"7,,,,,,.X;;;BAAAAdd;;49yssy0<>",
"grrrrrr.XXXXBAFAddd3;jkkgfrrrr",
"sppuppk.XXXX;AAXddd3;rppwguppp",
"rkpkupup.XXX;X;X3dd3;vvcrrrppp",
",8811,,,,,,XXX;;3dd3--<8<,,228",
"gkgkrrrrwrpk.X;;3dd3kkkkrrprgw",
"kpprppppsppr.XX;;33kuwusspppup",
"uujuppuuuwkklvvvvxxxhgrrwppksp"
};
