/* XPM */
static char *out[] = {
/* columns rows colors chars-per-pixel */
"30 30 91 1 ",
"  c #272534",
". c #2C2C3B",
"X c #403236",
"o c #4D3536",
"O c #4E3936",
"+ c #4D373B",
"@ c #4E3A39",
"# c #523534",
"$ c #543935",
"% c #51373A",
"& c #523B3B",
"* c #583A38",
"= c #5C463D",
"- c #5B4E3E",
"; c #69473D",
": c #6B493D",
"> c #3A3951",
", c #5A3F44",
"< c #574142",
"1 c #5D4545",
"2 c #5F4B45",
"3 c #5D4649",
"4 c #5D4A4A",
"5 c #47465C",
"6 c #584958",
"7 c #624544",
"8 c #654A45",
"9 c #6B4B44",
"0 c #614649",
"q c #624B4B",
"w c #684F4C",
"e c #704E44",
"r c #764F4A",
"t c #625245",
"y c #63504C",
"u c #6C5148",
"i c #74544B",
"p c #7C564D",
"a c #7D594E",
"s c #624C50",
"d c #755553",
"f c #7C5651",
"g c #755852",
"h c #7D5952",
"j c #755958",
"k c #7C5C59",
"l c #7C625B",
"z c #82554D",
"x c #815A4E",
"c c #8B5F4E",
"v c #815651",
"b c #815B53",
"n c #8C5D53",
"m c #815758",
"M c #825B59",
"N c #9A5D5C",
"B c #86614E",
"V c #8A614D",
"C c #846052",
"Z c #8B6352",
"A c #906152",
"S c #917755",
"D c #947853",
"F c #93735C",
"G c #947765",
"H c #94756C",
"J c #987D6A",
"K c #827575",
"L c #BB6566",
"P c #A0845E",
"I c #A18577",
"U c #A5867C",
"Y c #A6897E",
"T c #AA8A7D",
"R c #B48C7D",
"E c #BA917D",
"W c #B8AC73",
"Q c #9B8582",
"! c #A38A82",
"~ c #A4928F",
"^ c #A9968D",
"/ c #BB9480",
"( c #AB9490",
") c #B19A91",
"_ c #B8A59C",
"` c #BDBABA",
"' c #C4BB91",
"] c #E1AF90",
"[ c #DADADA",
"{ c #F6D8C3",
"} c #EAEAEA",
/* pixels */
"YYYYUYYUU!IJ````GGFZCxxpahhhhb",
"%O@O@&o+@o,[[[[[`q8yy4y424q403",
"Zaaahi;eCZ)[[[[[[[pfaahbCpaaxa",
"GHHHHl;7j^[[}}}}}[[b`happhahva",
"UTUUIGgei_[[}}}}[W[c`VZAVvhfvv",
"@OOO&*OO=O[W[[[[W{1L`y~ghwq3<,",
"ZZZZcVZVaBSWW[WW'{aL`v(xxpaxhh",
"VxZZBZZZVBP''W'_{'g[`NQfaaxaag",
"ZZZVZVVVVDVP''']C'p]]`!ZZZZCBa",
"&&O&&oo%$Ol'' ' ,'O]]pK%@o&o@@",
"cVccVAVnZZ'Z'.'' M'. Q~mbMbfah",
"VcAccAccVZB '>5'. v. RJndpbbfk",
"ZCZZBZZBZZ ..>55.. . E/a:xCZpx",
"*@33,31%#  . .>>>... 6X&11o=@O",
"p-t2=8il  . 2 .>.>. s3fhMMrhfz",
"bhbbmMbv . h2 .. f633fmkfjhbgh",
"VZnxhpa{. ffh`}}`aaaaazahavaxZ",
"qj0101%{{2@O }... 04q441&@4ys4",
"lbvxhvpfbvh }.}>.. iu888;89ilh",
"vihhhhbhff ..>>>>. 4gjhkkpbbxv",
"lkffhhafh ..>>>>55. Zxzzihddgk",
"$@oo&%+o ..>>>>>55>. 101=*$*77",
"gzvxxxax ..>>>>>555>. aagihhhh",
"hfhbhfhp ..>>>>>>55>. hvvbxpzb",
"pkhhhhaz ..>>>>>>>>>. BZBghvhv",
"10000101 ...>>>>>>>>. ydhkdy42",
"papzfvxzz ...>>>>>>. aavxxxxaa",
"bffahhhhhh  ...>>>.. ahhphpaaf",
"hhhvhhhhhxa= .....  cVnnbbvhhl",
"qqqqq0133211<     178988q11q48"
};
