/* XPM */
static char *out[] = {
/* columns rows colors chars-per-pixel */
"30 31 76 1 ",
"  c black",
". c #1C1B21",
"X c #272534",
"o c #2C2C3B",
"O c #4D3635",
"+ c #4E3937",
"@ c #4D363A",
"# c #4E393A",
"$ c #523635",
"% c #5A3731",
"& c #523936",
"* c #51373A",
"= c #523A3B",
"- c #5D3E3B",
"; c #55403B",
": c #5F443D",
"> c #66453E",
", c #3A3951",
"< c #5D4442",
"1 c #5D4945",
"2 c #5E4548",
"3 c #5F4B4A",
"4 c #614545",
"5 c #634A46",
"6 c #694C47",
"7 c #60474A",
"8 c #624B4B",
"9 c #6C4D4B",
"0 c #65514F",
"q c #6A514C",
"w c #795347",
"e c #76554E",
"r c #7D564D",
"t c #77594F",
"y c #7E594E",
"u c #765653",
"i c #7C5751",
"p c #775955",
"a c #7D5953",
"s c #765858",
"d c #7C5C59",
"f c #776459",
"g c #555378",
"h c #82564C",
"j c #815A4E",
"k c #895E4D",
"l c #815751",
"z c #815B52",
"x c #8B5E51",
"c c #845E5B",
"v c #87614E",
"b c #8C624E",
"n c #866152",
"m c #8A6252",
"M c #8D6855",
"N c #856259",
"B c #8A6458",
"V c #8A6A5B",
"C c #916452",
"Z c #926D5A",
"A c #91755F",
"S c #937461",
"D c #957963",
"F c #997965",
"G c #97776A",
"H c #907969",
"J c #9A7A6B",
"K c #BB6566",
"L c #9C9059",
"P c #B8AC73",
"I c #BDBABA",
"U c #E1AF90",
"Y c #F2CAB0",
"T c #DADADA",
"R c #F6D8C3",
"E c #EAEAEA",
/* pixels */
"885<<56447>4444:$$&&*$O$&+&=+&",
"jziizywwzmAB>yjmmmkvMCmmnvvnMb",
"iiadptaVSFHTTTzmxmMmxjvmAFDDSS",
"zihzxmMZMjTTTTTTkCbkmmvMAFJGGJ",
"@@$&$@&&=TTTEEEET:<5885363111:",
"ajaazdu6TTTEEEEELejyjzyyvvbCbb",
"aadapaspTTTEEPPYYPaeuizBmvbkvk",
"aijjjrjjvITPPPR RPBnayjnMbxxmm",
"++@*<4&$=LIRPYRRP*=#@T=#@#####",
"jjuNzwdpL6LPPYYRmmryiTrizzirrj",
"iajwryzLaLtPXXXbbmBjKIzaizrixz",
"zijrNNizaLPXL,,XkCxmKIBmr6nzzx",
"#@$24$-4%%XoL,goX<8<KI<==2<=++",
"yj88949sa.Xo,,,goowlITyiiwvpyi",
"iizepfaa..Xo,,,,,,ouUUzaydtaai",
"izmmjrid...o,,,oo,,oUUijzizirz",
"88s8<42...1XX,oo=o,ggo77<#=401",
"jjjhrzz..zzlooooizooo6566455uc",
"iajhjjjffrwXoTTToiziddppidzzdp",
"iiadaepfpuXXoooTETxxkxxjlldeiz",
"2244<=&&==XXo,ooETT;&&OO+&=&$$",
"jjuapp646XX,o,o,oETuapyyiud1<0",
"iiyznzjriXXo,,o,ooEoihyizz5qda",
"aiiaraaaXXoo,oo,oggomMvbmnzriz",
"84284222XXoo,ooo,,go<450838085",
"rhrryjjyXXo,,ooog,gorjyyizyyyj",
"aaiiiadiXXo,,ooo,,,oodzytaiiid",
"azazizyiXXo,ooooo,,,ommnnnyayi",
"887747222XoooXXXoo,oo<24557080",
"zyjjzzjjjhXXXziiXXoohyzzzzrjyi",
"iizyiiiziizaazzzyzriizaaduiiia"
};
