/* XPM */
static char *out[] = {
/* columns rows colors chars-per-pixel */
"30 30 65 1 ",
"  c black",
". c #1C1B21",
"X c #272534",
"o c #2C2C3B",
"O c #4D3635",
"+ c #4E3935",
"@ c #4D3739",
"# c #4D3A3A",
"$ c #533733",
"% c #533835",
"& c #503739",
"* c #533B3B",
"= c #5B3F3C",
"- c #56413E",
"; c #5A423E",
": c #3A3951",
"> c #593F40",
", c #564243",
"< c #5B4443",
"1 c #5E4945",
"2 c #5D4749",
"3 c #5D4A4B",
"4 c #624543",
"5 c #644B45",
"6 c #6C4A45",
"7 c #61464A",
"8 c #614C4C",
"9 c #6A4E4A",
"0 c #6D524C",
"q c #76554D",
"w c #7B554D",
"e c #7E594E",
"r c #625050",
"t c #745654",
"y c #7D5752",
"u c #765855",
"i c #7D5A53",
"p c #765A59",
"a c #7B5B58",
"s c #776459",
"d c #555378",
"f c #805C46",
"g c #82564D",
"h c #825A4D",
"j c #8B5F4F",
"k c #815752",
"l c #815A53",
"z c #8A5E52",
"x c #825C5A",
"c c #86624C",
"v c #8A624F",
"b c #876252",
"n c #8A6353",
"m c #836159",
"M c #8A655B",
"N c #916252",
"B c #BB6566",
"V c #9C9059",
"C c #B8AC73",
"Z c #BDBABA",
"A c #E1AF90",
"S c #F2CAB0",
"D c #DADADA",
"F c #F6D8C3",
"G c #EAEAEA",
/* pixels */
"wtppuiieeewiliiiliixaelwwaakix",
"lliewjzznnbcnDDDieennvnnveiiew",
"&;;****+#$$DDDDDD,-189tia881>&",
"hhlwww944lDGGGGDDDlxlwlggygaal",
"yiiaaaaiayVGGGGGDDDyuylkeheiya",
"lilghhhhvCSSCCGGDDDhhennnvvhhe",
"#O@<;$&=;CF FCCCDZ@#&&##@@*@*+",
"6alayDt458CFFSCFZVhwwgllzlkwly",
"alwgkDlaaliFSSCCVeVlhewqqwaiya",
"hewmmZBlivvvXXXCNVbVbMMe6hncge",
"@&;;&ZB$$&+X::VXCV<52*@*,;O**O",
"l1881ZBaiwXod:VoXleeeeiiilwiew",
"weqssDZlwood:::oX.iiiieiiiaxue",
"nNjfwAAwo::::::oX..ihieaieheeM",
"8p7=<AAo::oo:::o...<72<,##3r33",
"ilwllodd:okoo:XXx...0955566qzi",
"ewggheooowiooooili..ittaawiiee",
"iaaapaasieoDDDoXcNssnzkgwxaaia",
"4<;**&O&*DGDoooXX%ss;<><*+O+<;",
"iaaiq069DDGoo:oXXaiiehwywwelii",
"leiiieqiDGo:o:ooXXyykgykalhwwi",
"ihieeiaoGoo:o::oXXhznvjnnyalii",
"7<<<<<<oddo:oo:ooXX<<49piat01<",
"geeeeeeod::ooo:ooXXllgllkfgeee",
"iliyiilod:dooo::oXXaiwiiwieiia",
"iilieyoo:::ooo::oXXbnnnbgeeiii",
"<8822<o:::ooooo:oXX;;;181<<333",
"ghlhehoo:ooXXXoooXwyllllieeiee",
"aieiiiiooXXwliXXXlliiwulaiiiuy",
"yyylyiyyyyllznnnnvvvjhhewelikl"
};
