/* XPM */
static char *out[] = {
/* columns rows colors chars-per-pixel */
"30 30 91 1 ",
"  c #272534",
". c #2C2C3B",
"X c #4D3635",
"o c #4E3937",
"O c #40343B",
"+ c #4D363A",
"@ c #45383E",
"# c #4E393A",
"$ c #523635",
"% c #5A3731",
"& c #533936",
"* c #51373A",
"= c #523A3A",
"- c #5D3E3B",
"; c #65443F",
": c #6D483F",
"> c #3A3951",
", c #574142",
"< c #5C4544",
"1 c #5D4945",
"2 c #5D4648",
"3 c #5F4B4A",
"4 c #47465C",
"5 c #584A5B",
"6 c #624645",
"7 c #624A45",
"8 c #694B46",
"9 c #60474A",
"0 c #624A4B",
"q c #6C4D4B",
"w c #65514F",
"e c #6A514C",
"r c #795547",
"t c #74544D",
"y c #7D564D",
"u c #77594F",
"i c #7E594E",
"p c #614B50",
"a c #765653",
"s c #7C5751",
"d c #775955",
"f c #7D5953",
"g c #765858",
"h c #7B5C59",
"j c #7E6C52",
"k c #82564C",
"l c #815A4E",
"z c #885F4C",
"x c #815751",
"c c #825B53",
"v c #845E5A",
"b c #87624E",
"n c #8C634E",
"m c #866151",
"M c #8B6252",
"N c #876F53",
"B c #8D6855",
"V c #856159",
"C c #8A6A5B",
"Z c #906555",
"A c #9C605B",
"S c #926D5A",
"D c #937752",
"F c #91755F",
"G c #937461",
"H c #957963",
"J c #997965",
"K c #9A7A6B",
"L c #817476",
"P c #BB6566",
"I c #AB7F6D",
"U c #90837F",
"Y c #9A847E",
"T c #B58E7E",
"R c #B8AC73",
"E c #9F8983",
"W c #998B8B",
"Q c #AD978F",
"! c #AA988E",
"~ c #BA9281",
"^ c #A59791",
"/ c #AA9590",
"( c #AE9B95",
") c #B2A69D",
"_ c #BDBABA",
"` c #C4BB91",
"' c #E1AF90",
"] c #F2CAB0",
"[ c #DADADA",
"{ c #F6D8C3",
"} c #EAEAEA",
/* pixels */
"007<<786666;W____U*&*$X$&o****",
"lcsscsrrlvF([[[[[_QbMZMmmmbnMn",
"ssfhfsjCJH)^[[[[[[[MMzlBGJHHGG",
"cskxxzZSMz![[}}}}}[[M_nBGJKJKK",
"##&&$*X#==$[[}}}}[R[0_7W737<1,",
"ilufhhaq76xRR[[[[R{lP_sQmnnnnM",
"ffffsffdhhiN`R[RR`{uP_AEMnbznz",
"sfcckyilbnD```R``{`c[_AEMnMMZz",
"#X+*<6&$=6``j``` &`+''_L++####",
"iisVctfd7`88``.. `ik''Y/ccxiil",
"sflrilcfshi` `.``. s. TIshxxcc",
"sclyVVssfh` `...... > ~~i:mccz",
"##&<6$-;%%# . .>.> .> 5O=<,=#X",
"li0007qhff . < .>.,  31ciyifii",
"sscuhhfff'. s< .. h222cfffffsf",
"sxMMltfca]]fff[}}_ffffsicscscx",
"00d8,9<**<<#X }[   60090<*=9e1",
"lllykccisccx.}...   t8770777dv",
"hskklilllis...>...   jfghaccct",
"lihhfaahha..>>>....   xkxxffsh",
"2<66,=**=...>>>.....  XXo#&X$$",
"kiyhfa888..>>>>>....>  tfsg71w",
"ssicfmii..>>44>>.....  rcc1qfh",
"shcififs..>44>>>.....  zbMcyic",
"696<6<2<..>44>>.....   0w00w00",
"ikikillx..>>4>.....   sscsiiil",
"fsdssshsh..>>.       ccissfffc",
"hcccsclsls...  <<<,,mMMbMliuss",
"990999222<<1<1@@@@<6<<6<770pw0",
"llxlclikckxscsssssxxkihxccisiu"
};
