/* XPM */
static char *out[] = {
/* columns rows colors chars-per-pixel */
"30 30 63 1 ",
"  c black",
". c #1C1B21",
"X c #272534",
"o c #2C2C3B",
"O c #4C3635",
"+ c #4E3934",
"@ c #4D3639",
"# c #4D3B3A",
"$ c #543733",
"% c #533835",
"& c #503739",
"* c #533B3B",
"= c #5B3F3C",
"- c #56413E",
"; c #5A423E",
": c #3A3951",
"> c #593F40",
", c #564243",
"< c #5B4443",
"1 c #5E4945",
"2 c #5D4749",
"3 c #5D4A4A",
"4 c #624543",
"5 c #644B45",
"6 c #6C4A44",
"7 c #624549",
"8 c #614C4B",
"9 c #6A4F4A",
"0 c #6D514C",
"q c #76554D",
"w c #7C554D",
"e c #7E594E",
"r c #625050",
"t c #6D5B52",
"y c #755653",
"u c #7D5752",
"i c #765955",
"p c #7D5A52",
"a c #765A59",
"s c #7C5B58",
"d c #555378",
"f c #82564D",
"g c #815A4D",
"h c #8C5E4E",
"j c #815752",
"k c #815A53",
"l c #8B5E52",
"z c #825C59",
"x c #86604D",
"c c #8A614F",
"v c #876252",
"b c #8B6352",
"n c #836159",
"m c #8B655A",
"M c #916253",
"N c #BB6566",
"B c #9C9059",
"V c #B8AC73",
"C c #BDBABA",
"Z c #F2CAB0",
"A c #DADADA",
"S c #F6D8C3",
"D c #EAEAEA",
/* pixels */
"gpqypeppppjjjpeejkkupewjjkpeuj",
"wwyaipppeeeAAAkupppuzkepeussup",
"kkppfwklvbAAAAAAeepgbbbbccueee",
"@@===***#AAADDDDA2-,189yss831,",
"kgpgeqq0AAADDDDDBjzkzjujgfejku",
"upppssssAAADDVVZZBuuuuukeepguu",
"ukekkfffgCAVVVS SBBkeegvbbbckg",
"3#@@<;$%=BCSVZSSS&B##A*@@@&&%,",
"66spppsi45BVVZZS58kewAfgkzkkqk",
"upkwwekkssVBVVXjuueeNCewqwqpju",
"ppewnneppVMX::VVbbmbNCmme6gbbe",
"O@*;-%;;$$Xo::doX*=<NC*#*<-+**",
"ke38810aapXo:::doottCAeppppqpe",
"ewpqspqspwXo::::::otSSppppssze",
"cmMcfwgkekko:::oo::oSSpespekqg",
"r3y5>><&&<-XX:oo.o:ddo3<,#-<r3",
"6qkgekpeuzzjooooXzXoo0555466qn",
"pewggggeefeooDADAjuupyapapwppe",
"asppapaspaoooo:CDAMMMMlffwzuup",
"$4<-=*&@&*oo:oo:CDA*=-<-<-@O@;",
"eipsai069ood:oo::DApppeepuqkkk",
"evqpkpeqpod::ooo:CDAuufukpkkqq",
"pppeppppXo:::ooo:CDAbblhbvukkp",
"72<<<<<,Xo::oooo::DAo<<9yapt01",
"gjeeeeeXood:ooooo:DAopgkljffee",
"ppkuppuXod::ooooo:CDopwpuwfjpp",
"kupkpepXo::oooooo:C:obbbxejppp",
"2<8832<,XoooXoXoo:::o-<285,<33",
"fgkgpgeefooXkpgeXooeukkkkepgpg",
"ppwpeppppppppkeeeekkjuwupspppp"
};
