/* XPM */
static char *out[] = {
/* columns rows colors chars-per-pixel */
"30 30 72 1 ",
"  c black",
". c #1C1B21",
"X c #272534",
"o c #2C2C3B",
"O c #4D3735",
"+ c #4D3837",
"@ c #4D373A",
"# c #4E393A",
"$ c #523635",
"% c #533936",
"& c #5B3832",
"* c #533A3B",
"= c #55403B",
"- c #6D483F",
"; c #714D3F",
": c #3A3951",
"> c #5D4443",
", c #5E4945",
"< c #5E4548",
"1 c #5F4B4A",
"2 c #624645",
"3 c #624B45",
"4 c #694C47",
"5 c #60474A",
"6 c #634A4B",
"7 c #6B4C49",
"8 c #6C514B",
"9 c #795147",
"0 c #74544D",
"q c #7D564D",
"w c #77594F",
"e c #7E594E",
"r c #6D5B52",
"t c #765653",
"y c #7C5751",
"u c #775955",
"i c #7D5953",
"p c #765858",
"a c #7B5C59",
"s c #555378",
"d c #82564C",
"f c #825A4E",
"g c #895D4E",
"h c #815751",
"j c #815B52",
"k c #8B5E51",
"l c #835E58",
"z c #85614E",
"x c #8C624F",
"c c #866151",
"v c #8A6252",
"b c #8D6855",
"n c #856159",
"m c #8B6458",
"M c #8A6A5B",
"N c #916250",
"B c #926D5A",
"V c #91755F",
"C c #947561",
"Z c #957963",
"A c #997965",
"S c #97776A",
"D c #907969",
"F c #99796A",
"G c #BB6566",
"H c #9C9059",
"J c #B8AC73",
"K c #BDBABA",
"L c #F2CAB0",
"P c #DADADA",
"I c #F6D8C3",
"U c #EAEAEA",
/* pixels */
"iyiiaaqiMZZDi8iccvnNvxzzvVAZCV",
"ijidfkkbBbzf;fcPPPNxxvvcbCAFFS",
"++@$$$$$+**%+PPPPPP22365,33,,,",
"ijeyiaa0732fPUUUUPPPfdjjfcvxNv",
"ieiauuauaaaiHUUUUUPPPuijnvvxzg",
"iijdddqqezxHLLJJUUPPPeijzxxvvv",
"+++@*>-$O%HHI IJJJPK++@**@@#*$",
"fefuna0Pt4H4IIILJIKHeeqqijjjqq",
"iijd9qdPiiaeeILLJJHmfqfjqqjqdj",
"jeiaennKGuavxxXJJHJjvmvnnq4cjj",
"@@+$2-$KG&&@@JJ::X>J>>2>**<==*",
"efe5612KGiifXos::oX9fjjqieweee",
"iiii0aaPKrroos:::oXlyqijieiqya",
"ihjxvdqIIro::::::oXyijaiijjahj",
"535p3><IIo::oo:::o>226556>$*56",
"hffjqejoss:o.oo:XXhiw04234323t",
"yaidddffooXqXoooojeiijaapauhjj",
"iqdaauttaatfPUPUoozxgkkjdfdaqa",
"2<<22>*%%**PUK:oooo>==%+O+**O$",
"deduait724PUK:oo:ooiwweieeup2,",
"iiiqfjjjeiPU::oo:sooyihqeij,8a",
"iiijqquiiPUK:ooo::sofcvxxvvjqi",
"22522222<PUK:ooo:::oX=23661665",
"qqqfqqefoPU::oooo::oXjyejijefe",
"iiyuyuiioPU:ooooo:sooXjjeiyiii",
"ijjjjijioUK:ooooo::soXmvccfiii",
"5555555<o:K:oooooo::oX=,<33666",
"jffjjffdo:::ooXoXoooXffijjleeq",
"iyiidijiqjooXjjjjXoojjijaiaqqi",
"iiiiiiiuuiiqdffxvNxvvxzdqqjhjy"
};
