/* XPM */
static char *out[] = {
/* columns rows colors chars-per-pixel */
"30 30 80 1 ",
"  c #351530",
". c #613C00",
"X c #4C3635",
"o c #4D3836",
"O c #4D3739",
"+ c #4E3A3A",
"@ c #523636",
"# c #523936",
"$ c #513639",
"% c #513B3B",
"& c #55403B",
"* c #5B453E",
"= c #61463F",
"- c #774D3D",
"; c #382449",
": c #000075",
"> c #583943",
", c #5D4544",
"< c #5E4945",
"1 c #5F4548",
"2 c #495044",
"3 c #614544",
"4 c #624B45",
"5 c #6B4D46",
"6 c #614649",
"7 c #634A4B",
"8 c #795147",
"9 c #74554E",
"0 c #7D564D",
"q c #77594F",
"w c #7D5A4D",
"e c #775554",
"r c #7D5751",
"t c #745950",
"y c #7D5952",
"u c #7F5958",
"i c #7D6155",
"p c #7F625C",
"a c gray43",
"s c #647A6C",
"d c #966138",
"f c #81564D",
"g c #815A4E",
"h c #8B5E4C",
"j c #985941",
"k c #815751",
"l c #815A53",
"z c #8E5F50",
"x c #815758",
"c c #835B59",
"v c #86614F",
"b c #8B614E",
"n c #876152",
"m c #8B6352",
"M c #8C6956",
"N c #866458",
"B c #8C6558",
"V c #916251",
"C c #91755F",
"Z c #937561",
"A c #9A7665",
"S c #957964",
"D c #9A7965",
"F c #93756C",
"G c #9E8255",
"H c #AE8565",
"J c #A6867B",
"K c #E48676",
"L c #002C9C",
"P c #0058C3",
"I c gray57",
"U c gray64",
"Y c #C5A58A",
"T c #F2B586",
"R c #DFD1A5",
"E c #FFDAB6",
"W c #CDCDCD",
"Q c #D7D7D7",
"! c #F4F4F4",
"~ c #FFFBF0",
/* pixels */
"nnmVmnhgMCDSSCZSSSSAAFFp3=ywgv",
"bhVmbmnbMZDIIIIIUJJIJJJF05tDAA",
"343=377444U!WQWW!I%X@##+oX%oO%",
"wy0ggylwgI!WsassW!UbVbbhmnznzm",
"wycw9rylUWWsPLLPaW!Imnmmmmmbnm",
"hmhNyyylsIaPL::LPsIsmbmbbbbbbb",
"@@@%+O+%:sPL:TT:LPa:o%+o@$$$##",
"nnB0wgw::aLW2TT2WLs:LbVVbmVzmb",
"VbnBg8LP:s:~sEEs!:a:P:bbbvbhnn",
"hhVzBB:LNajKTEETKdanL:vBbvmmnm",
"o%,7,*:PLP.jKTTKj.PLP:,3,$@@#@",
"rkl8gll:::8......r:::<&4tyiy0l",
"0wfc00ycyG;>TTTT>;G0lccxcr0uey",
"yyuyuuyrGYR-TEET-RYGlflrwwwywy",
"+%,3347GYRR-HEEH-RRYG36,O%,,%o",
"0wlyt95.GR>-RHHR->RG.fff0ylyf0",
"ll0lyi.TdG;------;GdK.yyyyewll",
"mmvbz.TK.k;>---->;u.KR.yyrywvm",
"44<,%.dd.o;>->>->;@.dd.+XX%#*<",
"yllyqy..yy;------;e0..lwggf0wc",
"eyycyyk0g;>--dd-->;eyyyyy00yyy",
"wlwwgnmnn;--dddd--;yyyyyyrcwww",
"<,,3,*347;--dddd--;6363,,1,6,3",
"llklllkgw;-dddddd-;fw0fgfgfkkr",
"rxrryllyy;-dddddd-;yyyyyyyeyyx",
"ww0ggvmm;>-------->2cyyywyygww",
"<,<,,,*,<;;;;;;;;;;7711111,<,<",
"rr0lklgllc   ww   wlggl00gfyrg",
"lyl0llgyrerywrywyywyywyyyllyyc",
"mbbmnbvgwlllryxyyyyyyyryeyyw0g"
};
