/* XPM */
static char *out[] = {
/* columns rows colors chars-per-pixel */
"30 30 73 1 ",
"  c #4E3124",
". c #543424",
"X c #543729",
"o c #563A2B",
"O c #5F3D2C",
"+ c #4D3535",
"@ c #4D3835",
"# c #4D373A",
"$ c #4E393A",
"% c #523634",
"& c #543836",
"* c #5B3832",
"= c #51363A",
"- c #513B3B",
"; c #653C21",
": c #613D2C",
"> c #623F30",
", c #5B453E",
"< c #5B4E3E",
"1 c #6A422B",
"2 c #61463F",
"3 c #6C493A",
"4 c #744C35",
"5 c #734D3B",
"6 c #5A3F44",
"7 c #5D4544",
"8 c #5E4945",
"9 c #5C4449",
"0 c #624645",
"q c #624A45",
"w c #6A4B45",
"e c #614749",
"r c #624B4B",
"t c #625245",
"y c #64524E",
"u c #6D514C",
"i c #75544E",
"p c #7D564E",
"a c #7D594D",
"s c #775453",
"d c #7C5651",
"f c #7D5953",
"g c #765A59",
"h c #7B5D59",
"j c #786159",
"k c #885434",
"l c #955C38",
"z c #9B5F39",
"x c #9F623B",
"c c #81554D",
"v c #825B4E",
"b c #8B5F4D",
"n c #815751",
"m c #815B53",
"M c #815758",
"N c #85614E",
"B c #8B624E",
"V c #90634E",
"C c #866152",
"Z c #8B6352",
"A c #8C6954",
"S c #906151",
"D c #916854",
"F c #91755F",
"G c #947562",
"H c #957964",
"J c #997965",
"K c #94766C",
"L c #907969",
"P c #9A7A6B",
"I c #A28277",
"U c #A6867B",
"Y c #AA8A7D",
/* pixels */
"GJLaidmZZZDZbmNAGJHFFGGHLHKKKK",
"Ava5mmZBbSZbbZCAGJPPPPIUYUYUUU",
"----=r02w0,0qrq8q88887-@$-@@@@",
"qqffmmiafivvmfmmZNBVBZBBZSNBZb",
"fhfiAsjafhfiifmZZCNBbbNBNBbCCN",
"NBBZbbS45453333544554cZZBZDZNZ",
"-09-+%&;xxxxxxxxxxxxx ##-$$$--",
"wqwqwmC;xxxxxxxxxxxxx:ZZbbVbbS",
"fMiaNZD;xxxxxxxxxxxxx>ZZBNSZbB",
"fhZZZBB;xxxxxxxxxxxxx:bNBZbAZm",
"**$#$$#;xxxxxxxxxxxxx $---$796",
"ffnfmmf;xxxxxxxxxxxxxOffdd<tq,",
"ffcvfvv;xxxxxxxxxxxxxOfffmammM",
"sfffdff;xxxxxxxxxxxxx>bZZbZmcn",
"=77$@--;xxxxxxxxxxxxxX8yeegr7e",
"pmmmdpp;xxxxxxxxxxxxx>mwqjbcvc",
"vppmmmf;xxxxxxxxxxxxxOafinifff",
"hsvNNNN;xxxxxxxxxxx:x:fffmmfff",
"--,7,qq;xxxxxxxxxl.g4 %&&&-#@#",
"wsfnmmm;xxxxxxxxx4fgkoyrrspfvv",
"mCfhhdh;xxxxxxxxxz1ukOidfgffhf",
"fiafvpp;xxxxxxxxxxxxx1ffncffpf",
"7770077;xxxxxxxxxxxxxXq9077e00",
"ccnnnnv;xxxxxxxxxxxxx:pvppcvpp",
"hfnmfhn;xxxxxxxxxxxxx:fmhmdfff",
"afvaaaa;xxxxxxxxxxxxxOffpamhmf",
"9977777;xxxxxxxxxxxxxorrrree9e",
"vcffnfv;xxxxxxxxxxxxxOaafamvnv",
"fmffmmm;xxxxxxxxxxxxx:pfffaffa",
"ffppvmN;xxxxxxxxxxxxx:hdffffff"
};
