/* XPM */
static char *_83345f8ce32426aeff7a9646260fab2xAhQ5RB4cPXnjHDH[] = {
/* columns rows colors chars-per-pixel */
"30 30 7 1 ",
"  c #6F5450",
". c #7D5952",
"X c #8B6150",
"o c #5A4342",
"O c #503838",
"+ c #614C49",
"@ c white",
/* pixels */
" ............................ ",
"..............................",
"...XXXXXXXXX.....XXXXXX.......",
"oOOOOOOOOOooooooo+++...++ooOOO",
"....+++.......................",
"..............................",
".....XXXXXXXXXXX....XXXXXX....",
"OooOOOooOOOOOOOOOOOOOOOOOOOOO+",
".....++++++++++.............++",
"..............................",
"..X....XXXXXXXXXXXXXX.+.XX....",
"ooOooOOOOOOOOOooooooOOooOOOOOO",
"++++..........................",
"..............................",
"X..........................XXX",
"ooooOOooOOOOOOoooo++ooOO++++++",
"..................+++++++...++",
"..............................",
"........XXXXXXXXXXX...........",
"ooOOOOOoooo+++ooOoooooOOOOooOO",
"...+++........................",
"..............................",
".................XXXXXX.......",
"ooooooooooooooooooo++....++ooo",
"..............................",
"..............................",
".................XXXXX........",
"++oooooooooooooooooo+++oo+o++o",
"..............................",
".............................."
};
